<svg width="205" height="51" viewBox="0 0 205 51" fill="none" xmlns="http://www.w3.org/2000/svg">
<path d="M14.326 50.0312C11.8056 50.0312 9.50085 49.3955 7.41184 48.1239C5.34553 46.8523 3.6993 45.1493 2.47315 43.0149C1.26969 40.8578 0.667969 38.4622 0.667969 35.8283L0.736089 14.0639C0.736089 11.4754 1.32646 9.13661 2.50721 7.0476C3.68795 4.93588 5.31147 3.24424 7.37778 1.97267C9.46679 0.678389 11.7829 0.03125 14.326 0.03125C16.9146 0.03125 19.2193 0.655682 21.2402 1.90455C23.2838 3.15341 24.9073 4.84506 26.1107 6.97948C27.3369 9.0912 27.95 11.4527 27.95 14.0639V17.2656C27.95 17.4472 27.8592 17.5381 27.6775 17.5381H19.8437C19.6621 17.5381 19.5712 17.4472 19.5712 17.2656V14.0639C19.5712 12.5199 19.0717 11.1916 18.0726 10.0789C17.0735 8.96631 15.8246 8.41 14.326 8.41C12.6684 8.41 11.3969 8.97766 10.5113 10.113C9.62573 11.2483 9.18295 12.5653 9.18295 14.0639V35.8283C9.18295 37.5312 9.6825 38.9277 10.6816 40.0176C11.6807 41.0848 12.8955 41.6184 14.326 41.6184C15.8246 41.6184 17.0735 41.0281 18.0726 39.8473C19.0717 38.6439 19.5712 37.3042 19.5712 35.8283V32.5926C19.5712 32.4109 19.6621 32.3201 19.8437 32.3201H27.7456C27.9273 32.3201 28.0181 32.4109 28.0181 32.5926V35.8283C28.0181 38.4395 27.405 40.8237 26.1789 42.9808C24.93 45.1153 23.2838 46.8296 21.2402 48.1239C19.1966 49.3955 16.8919 50.0312 14.326 50.0312Z" fill="#323334"/>
<path d="M44.6067 50.0312C42.1316 50.0312 39.8496 49.3955 37.7606 48.1239C35.6943 46.8523 34.0254 45.1607 32.7538 43.049C31.5049 40.9145 30.8805 38.5758 30.8805 36.0326L30.9486 13.9277C30.9486 11.3392 31.5731 9.01172 32.8219 6.94542C34.0481 4.85641 35.7057 3.18747 37.7947 1.93861C39.8837 0.667036 42.1543 0.03125 44.6067 0.03125C47.1498 0.03125 49.4318 0.655682 51.4527 1.90455C53.4963 3.15341 55.1312 4.8337 56.3573 6.94542C57.6062 9.03443 58.2306 11.3619 58.2306 13.9277L58.2988 36.0326C58.2988 38.5758 57.6857 40.9032 56.4595 43.0149C55.2107 45.1493 53.5531 46.8523 51.4868 48.1239C49.4205 49.3955 47.1271 50.0312 44.6067 50.0312ZM44.6067 41.6184C46.0145 41.6184 47.2406 41.0508 48.2851 39.9154C49.3296 38.7574 49.8519 37.4631 49.8519 36.0326L49.7838 13.9277C49.7838 12.3837 49.2956 11.078 48.3192 10.0108C47.3428 8.9436 46.1053 8.41 44.6067 8.41C43.1761 8.41 41.95 8.93225 40.9282 9.97675C39.9064 11.0213 39.3955 12.3382 39.3955 13.9277V36.0326C39.3955 37.554 39.9064 38.8709 40.9282 39.9836C41.95 41.0735 43.1761 41.6184 44.6067 41.6184Z" fill="#323334"/>
<path d="M69.7783 49.35H62.796C62.4327 49.35 62.2511 49.1911 62.2511 48.8732L62.183 1.35959C62.183 0.996282 62.3646 0.814629 62.7279 0.814629H69.029L80.8137 28.301L80.4731 1.35959C80.4731 0.996282 80.6775 0.814629 81.0862 0.814629H88.0004C88.2729 0.814629 88.4091 0.996282 88.4091 1.35959L88.4772 48.9413C88.4772 49.2138 88.3637 49.35 88.1366 49.35H82.0058L69.9146 23.6689L70.4255 48.8051C70.4255 49.1684 70.2097 49.35 69.7783 49.35Z" fill="#323334"/>
<path d="M101.319 49.35H93.4854C93.2583 49.35 93.1448 49.2365 93.1448 49.0095L93.281 1.08711C93.281 0.905455 93.3719 0.814629 93.5535 0.814629H115.897C116.124 0.814629 116.237 0.905455 116.237 1.08711V8.95496C116.237 9.13661 116.147 9.22744 115.965 9.22744H101.66V20.0585H115.965C116.147 20.0585 116.237 20.172 116.237 20.3991L116.306 28.301C116.306 28.4827 116.192 28.5735 115.965 28.5735H101.66V49.0095C101.66 49.2365 101.546 49.35 101.319 49.35Z" fill="#323334"/>
<path d="M118.759 49.0095L127.41 1.08711C127.456 0.905455 127.569 0.814629 127.751 0.814629H137.867C138.049 0.814629 138.162 0.905455 138.207 1.08711L146.518 49.0095C146.541 49.2365 146.45 49.35 146.246 49.35H138.514C138.287 49.35 138.162 49.2365 138.139 49.0095L137.39 43.9005H127.887L127.138 49.0095C127.115 49.2365 127.002 49.35 126.797 49.35H119.032C118.85 49.35 118.759 49.2365 118.759 49.0095ZM132.417 16.8569L129.284 36.4413H135.994L133.133 16.8569L132.724 14.2683L132.417 16.8569Z" fill="#323334"/>
<path d="M162.323 50.0312C159.803 50.0312 157.498 49.3955 155.409 48.1239C153.343 46.8523 151.697 45.1493 150.47 43.0149C149.267 40.8578 148.665 38.4622 148.665 35.8283L148.733 14.0639C148.733 11.4754 149.324 9.13661 150.504 7.0476C151.685 4.93588 153.309 3.24424 155.375 1.97267C157.464 0.678389 159.78 0.03125 162.323 0.03125C164.912 0.03125 167.217 0.655682 169.237 1.90455C171.281 3.15341 172.905 4.84506 174.108 6.97948C175.334 9.0912 175.947 11.4527 175.947 14.0639V17.2656C175.947 17.4472 175.856 17.5381 175.675 17.5381H167.841C167.659 17.5381 167.569 17.4472 167.569 17.2656V14.0639C167.569 12.5199 167.069 11.1916 166.07 10.0789C165.071 8.96631 163.822 8.41 162.323 8.41C160.666 8.41 159.394 8.97766 158.509 10.113C157.623 11.2483 157.18 12.5653 157.18 14.0639V35.8283C157.18 37.5312 157.68 38.9277 158.679 40.0176C159.678 41.0848 160.893 41.6184 162.323 41.6184C163.822 41.6184 165.071 41.0281 166.07 39.8473C167.069 38.6439 167.569 37.3042 167.569 35.8283V32.5926C167.569 32.4109 167.659 32.3201 167.841 32.3201H175.743C175.925 32.3201 176.015 32.4109 176.015 32.5926V35.8283C176.015 38.4395 175.402 40.8237 174.176 42.9808C172.927 45.1153 171.281 46.8296 169.237 48.1239C167.194 49.3955 164.889 50.0312 162.323 50.0312Z" fill="#323334"/>
<path d="M194.579 49.35H186.712C186.507 49.35 186.405 49.2365 186.405 49.0095V9.22744H177.345C177.118 9.22744 177.004 9.1139 177.004 8.88684L177.073 1.08711C177.073 0.905455 177.163 0.814629 177.345 0.814629H203.844C204.093 0.814629 204.218 0.905455 204.218 1.08711V8.88684C204.218 9.1139 204.128 9.22744 203.946 9.22744H194.784L194.852 49.0095C194.852 49.2365 194.761 49.35 194.579 49.35Z" fill="#323334"/>
</svg>
